<?xml version="1.0" encoding="UTF-8" standalone="no"?>
<!-- Uploaded to: SVG Repo, www.svgrepo.com, Generator: SVG Repo Mixer Tools -->

<svg
   fill="#000000"
   width="800px"
   height="800px"
   viewBox="0 0 24 24"
   xml:space="preserve"
   version="1.1"
   id="svg4"
   sodipodi:docname="discord-alt-svgrepo-com.svg"
   inkscape:version="1.1.2 (b8e25be833, 2022-02-05)"
   xmlns:inkscape="http://www.inkscape.org/namespaces/inkscape"
   xmlns:sodipodi="http://sodipodi.sourceforge.net/DTD/sodipodi-0.dtd"
   xmlns="http://www.w3.org/2000/svg"
   xmlns:svg="http://www.w3.org/2000/svg"><defs
     id="defs8" /><sodipodi:namedview
     id="namedview6"
     pagecolor="#ffffff"
     bordercolor="#666666"
     borderopacity="1.0"
     inkscape:pageshadow="2"
     inkscape:pageopacity="0.0"
     inkscape:pagecheckerboard="0"
     showgrid="false"
     inkscape:zoom="0.89875"
     inkscape:cx="399.44367"
     inkscape:cy="400"
     inkscape:window-width="1920"
     inkscape:window-height="1001"
     inkscape:window-x="-9"
     inkscape:window-y="-9"
     inkscape:window-maximized="1"
     inkscape:current-layer="svg4" /><path
     d="M18.942 5.556a16.299 16.299 0 0 0-4.126-1.297c-.178.321-.385.754-.529 1.097a15.175 15.175 0 0 0-4.573 0 11.583 11.583 0 0 0-.535-1.097 16.274 16.274 0 0 0-4.129 1.3c-2.611 3.946-3.319 7.794-2.965 11.587a16.494 16.494 0 0 0 5.061 2.593 12.65 12.65 0 0 0 1.084-1.785 10.689 10.689 0 0 1-1.707-.831c.143-.106.283-.217.418-.331 3.291 1.539 6.866 1.539 10.118 0 .137.114.277.225.418.331-.541.326-1.114.606-1.71.832a12.52 12.52 0 0 0 1.084 1.785 16.46 16.46 0 0 0 5.064-2.595c.415-4.396-.709-8.209-2.973-11.589zM8.678 14.813c-.988 0-1.798-.922-1.798-2.045s.793-2.047 1.798-2.047 1.815.922 1.798 2.047c.001 1.123-.793 2.045-1.798 2.045zm6.644 0c-.988 0-1.798-.922-1.798-2.045s.793-2.047 1.798-2.047 1.815.922 1.798 2.047c0 1.123-.793 2.045-1.798 2.045z"
     id="path2"
     style="fill:#f9f9f9;stroke-width:0.3;stroke-miterlimit:4;stroke-dasharray:none;stroke:#000000;stroke-opacity:1;fill-opacity:1" /></svg>
